<?xml version="1.0" encoding="UTF-8"?>
<svg xmlns="http://www.w3.org/2000/svg" xmlns:xlink="http://www.w3.org/1999/xlink" width="5280" height="3960" viewBox="0 0 5280 3960">
<path fill-rule="evenodd" fill="rgb(77.146912%, 83.984375%, 90.429688%)" fill-opacity="1" d="M 3179.339844 3322.136719 L 2890.671875 3328.695312 L 2890.660156 3326.277344 L 2696.988281 3328.695312 L 2696.980469 3321.613281 L 2687.488281 3321.589844 L 2687.511719 3325.585938 L 2252.25 3328.695312 L 2252.25 3327.621094 L 2192.800781 3328.695312 L 2192.800781 3326.277344 L 1949.230469 3328.695312 L 1949.21875 3322.136719 L 1937.300781 3322.136719 L 1937.320312 3325.585938 L 1389.929688 3328.695312 L 1389.910156 3322.136719 L 799.375 3322.136719 L 796.78125 3128.183594 L 834.40625 3128.582031 L 836.609375 2361.800781 L 837.027344 2272.78125 L 850.910156 2272.558594 L 851.335938 2331.460938 L 932.679688 2331.179688 L 935.363281 1836.300781 L 1000.578125 1836.210938 L 1000.851562 1699.21875 L 1037.460938 1699.640625 L 1037.539062 1671.519531 L 1056.410156 1670.410156 L 1056.558594 1588.960938 L 1073.558594 1587.820312 L 1073.609375 1453.601562 L 1075.640625 1453.539062 L 1075.648438 1452.460938 L 1092.691406 1453 L 1109.730469 1452.460938 L 1109.738281 1453.539062 L 1111.761719 1453.601562 L 1111.820312 1587.820312 L 1128.820312 1588.960938 L 1128.960938 1670.410156 L 1147.839844 1671.519531 L 1147.921875 1699.640625 L 1184.53125 1699.21875 L 1184.800781 1836.210938 L 1250.019531 1836.300781 L 1252.488281 2291.851562 L 1295.089844 2290.671875 L 1293.808594 2073.058594 L 1344.328125 2072.710938 L 1341.429688 1774.660156 L 1346.101562 1774.660156 L 1346.578125 1688.601562 L 1356.980469 1688.988281 L 1357.140625 1774.660156 L 1586.199219 1774.660156 L 1583.289062 2072.710938 L 1633.820312 2073.058594 L 1632.539062 2290.671875 L 1686.089844 2292.148438 L 1686.171875 1989.871094 L 1667.308594 1989.910156 L 1667.140625 2020.5 L 1595.050781 2019.78125 L 1597.390625 1601.25 L 1666.539062 1601.941406 L 1666.589844 1630.089844 L 1685.941406 1630.328125 L 1686.871094 1433.511719 L 1666.601562 1434.300781 L 1667.019531 1355.410156 L 1875.25 1353.410156 L 1908.820312 1296.179688 L 1944.289062 1297.269531 L 1943.910156 1363.691406 L 1966.371094 1364.050781 L 1965.058594 1430.449219 L 1942.949219 1431.300781 L 1942.359375 1836.210938 L 1942.648438 1836.210938 L 1942.871094 1699.21875 L 1971.980469 1699.640625 L 1972.039062 1671.519531 L 1987.050781 1670.410156 L 1987.171875 1588.960938 L 2000.679688 1587.820312 L 2000.730469 1453.601562 L 2002.339844 1453.539062 L 2002.351562 1452.460938 L 2015.890625 1453 L 2029.441406 1452.460938 L 2029.449219 1453.539062 L 2031.058594 1453.601562 L 2031.109375 1587.820312 L 2044.621094 1588.960938 L 2044.738281 1670.410156 L 2059.75 1671.519531 L 2059.808594 1699.640625 L 2088.921875 1699.21875 L 2089.140625 1836.210938 L 2141 1836.300781 L 2143.121094 2328.199219 L 2152.378906 2328.179688 L 2152.550781 2274.261719 L 2192.25 2276.199219 L 2192.011719 1803.839844 L 2225.339844 1802.089844 L 2226.210938 1660.96875 L 2247.429688 1659.558594 L 2242.480469 910.289062 L 2688.371094 903.660156 L 2688.371094 1071.460938 L 2671.339844 1072.21875 L 2670.519531 1243.820312 L 2652.421875 1244.511719 L 2652.761719 1322.109375 L 2664.859375 1296.179688 L 2693.058594 1297.269531 L 2692.75 1363.691406 L 2710.609375 1364.050781 L 2709.570312 1430.449219 L 2691.988281 1431.300781 L 2691.648438 1725.378906 L 2870.25 1726.789062 L 2916.910156 1726.421875 L 2917.230469 1660.96875 L 2934.101562 1659.558594 L 2930.171875 910.289062 L 3284.730469 903.660156 L 3284.730469 1071.460938 L 3271.179688 1072.21875 L 3270.53125 1243.820312 L 3256.140625 1244.511719 L 3256.5 1347.871094 L 3231.210938 1346.671875 L 3231.769531 1724.820312 L 3429.339844 1726.789062 L 3627 1724.820312 L 3627.03125 1775.808594 L 3617.519531 1776.558594 L 3617.398438 1879.351562 L 3626.789062 1879.820312 L 3626.519531 1957.171875 L 3617.300781 1956.878906 L 3617.210938 2034.960938 L 3626.339844 2035.820312 L 3626.441406 2162.558594 L 3617.539062 2163.460938 L 3617.300781 2215.28125 L 3626.378906 2216.019531 L 3626.550781 2291.71875 L 3617.390625 2292.441406 L 3617.398438 2396.011719 L 3623.808594 2395.769531 L 3623.429688 2345.199219 L 3663.269531 2345.390625 L 3662.789062 2264.339844 L 3704.828125 2264.039062 L 3708.019531 1774.660156 L 3991.5 1774.660156 L 3987.761719 2072.710938 L 4052.820312 2073.058594 L 4051.171875 2290.671875 L 4092.839844 2291.570312 L 4095.511719 1774.660156 L 4320.929688 1774.660156 L 4317.960938 2072.710938 L 4369.691406 2073.058594 L 4368.378906 2290.671875 L 4501.78125 2294.261719 L 4504.199219 2712.488281 C 4572.410156 2717.898438 4603.828125 2802.941406 4603.828125 2802.941406 L 4632.308594 2803.070312 C 4634.960938 2802.53125 4636.46875 2801.800781 4636.488281 2800.820312 C 4636.691406 2792.238281 4660.671875 2715.101562 4720.519531 2712.28125 C 4780.371094 2709.460938 4807.839844 2802.941406 4807.839844 2802.941406 L 4917.328125 2803.570312 L 4917.128906 2790.488281 L 5043.511719 2789.839844 L 5044.210938 2734.359375 L 5059.789062 2734.601562 L 5060.339844 2790.46875 L 5062.320312 2790.460938 L 5076.179688 2790.011719 L 5076.179688 2790.371094 L 5157.449219 2789.839844 L 5158 2734.359375 L 5170.390625 2734.601562 L 5170.828125 2790.519531 L 5183.429688 2790.011719 L 5183.800781 2843.800781 L 5232.289062 2843.800781 L 5232.058594 2894.851562 L 5279.128906 2894.851562 L 5280 3322.136719 L 5197.628906 3321.464844 L 5197.628906 3322.136719 L 4920.011719 3320.332031 L 4920 3322.136719 L 4744.890625 3321.847656 L 4744.890625 3322.136719 L 4509.539062 3321.828125 L 4509.539062 3322.136719 Z M 250.351562 1774.660156 L 250.964844 1688.601562 L 264.03125 1688.988281 L 264.242188 1774.660156 L 552.300781 1774.660156 L 548.652344 2072.710938 L 612.1875 2073.058594 L 610.582031 2290.671875 L 774.433594 2294.261719 L 780.058594 3086.328125 L 796.78125 3089.164062 L 796.78125 3128.449219 L 785.574219 3129.53125 L 783.96875 3322.136719 L 12.8125 3322.136719 L 11.140625 3128.238281 L 0 3128.449219 L 0.695312 3085.378906 L 16.722656 3086.328125 L 22.347656 2294.261719 L 186.199219 2290.671875 L 184.59375 2073.058594 L 248.128906 2072.710938 L 244.480469 1774.660156 Z M 3232.421875 2162.578125 L 3241.148438 2163.460938 L 3241.390625 2215.28125 L 3232.5 2216.011719 Z M 3232.070312 1929.21875 L 3232.171875 1957.171875 L 3241.390625 1956.878906 L 3241.480469 2034.960938 L 3232.351562 2035.820312 L 3232.308594 2089.808594 Z M 1685.941406 1972.75 L 1685.941406 1649.390625 L 1667.160156 1649.390625 L 1667.160156 1972.75 Z M 3231.839844 1775.820312 L 3241.171875 1776.558594 L 3241.289062 1879.351562 L 3232 1879.808594 Z M 2621.089844 1353.609375 L 2638.160156 1353.410156 L 2640.949219 1347.421875 L 2621.070312 1346.671875 L 2621.089844 1353.609375 "/>
<path fill-rule="evenodd" fill="rgb(10.693359%, 22.900391%, 34.692383%)" fill-opacity="1" d="M 2616.679688 2117.949219 L 2617.390625 1832.480469 L 2585.089844 1833.390625 L 2585.550781 1755.359375 L 2567.160156 1754.839844 L 2566.328125 1625.300781 L 2549.019531 1624.730469 L 2549.019531 1498.058594 L 3001.980469 1503.058594 L 2996.960938 2068.679688 L 3018.511719 2069.75 L 3019.390625 2176.28125 L 3053.261719 2177.589844 L 3053.011719 2534.179688 L 3093.339844 2532.710938 L 3093.511719 2573.421875 L 3160.140625 2573.539062 L 3160.011719 2532.648438 L 3143.730469 2532.308594 L 3143.691406 2491.988281 L 3300.070312 2493.691406 L 3299.738281 2532.539062 L 3282.570312 2532.890625 L 3282.390625 2573.109375 L 3301.558594 2572.839844 L 3300.238281 3167.929688 L 3308.75 3168.1875 L 3306.261719 1896.371094 L 3283.800781 1895.730469 L 3282.46875 1845.609375 L 3305.289062 1845.328125 L 3304.890625 1795.191406 L 3340.929688 1794.371094 L 3375.039062 1837.570312 L 3586.558594 1839.078125 L 3586.980469 1898.628906 L 3566.398438 1898.039062 L 3567.351562 2046.609375 L 3587 2046.441406 L 3587.050781 2025.191406 L 3657.300781 2024.671875 L 3659.679688 2340.609375 L 3586.441406 2341.148438 L 3586.261719 2318.058594 L 3567.101562 2318.03125 L 3567.28125 2807.710938 L 3869.398438 2807.710938 L 3868.050781 3328.695312 L 3311.980469 3326.347656 L 3312.878906 3222.425781 L 3300.109375 3222.519531 L 3299.878906 3328.695312 L 3052.449219 3326.867188 L 3052.449219 3328.695312 L 2628.03125 3322.996094 L 2628.039062 3323.199219 L 2420.359375 3323.554688 L 2420.359375 3323.742188 L 2364.269531 3323.648438 L 2308.179688 3323.742188 L 2308.179688 3323.554688 L 2106.851562 3323.210938 L 2106.839844 3323.742188 L 984.285156 3323.742188 L 982.546875 3177.371094 L 970.957031 3177.53125 L 971.683594 3145.015625 L 988.351562 3145.734375 L 994.203125 2547.808594 L 1164.621094 2545.101562 L 1162.949219 2380.828125 L 1229.039062 2380.558594 L 1225.238281 2155.570312 L 1513.21875 2155.570312 L 1522.691406 3237.269531 L 1542.539062 3237.253906 L 1539.148438 2657.089844 L 1636.558594 2655.800781 L 1636.730469 2563.011719 L 1613.300781 2561.058594 L 1613.328125 2543.480469 L 1636.480469 2543.570312 L 1635.96875 2523.429688 L 2066.03125 2525.21875 L 2065.429688 2586.410156 L 2116.320312 2586.261719 L 2115.828125 2624.441406 L 2124.019531 2624.621094 L 2124.03125 2546.441406 L 2112.339844 2545.890625 L 2112.550781 2488.75 L 2124.160156 2488.191406 L 2123.851562 2449.070312 L 2112.46875 2448.390625 L 2112.609375 2352.710938 L 2124.269531 2352.070312 L 2124.148438 2293.121094 L 2112.371094 2293.339844 L 2112.03125 2234.949219 L 2124.019531 2234.601562 L 2123.871094 2157 L 2111.710938 2156.441406 L 2111.75 2117.949219 L 2364.269531 2119.441406 Z M 5266.980469 3323.742188 L 4483.609375 3323.742188 L 4481.980469 3178.347656 L 4470.589844 3177.53125 L 4470.589844 3147.875 L 4487.578125 3145.734375 L 4493.289062 2547.808594 L 4659.738281 2545.101562 L 4658.109375 2380.828125 L 4722.648438 2380.558594 L 4718.949219 2155.570312 L 5011.570312 2155.570312 L 5011.789062 2090.890625 L 5025.058594 2090.609375 L 5025.679688 2155.570312 L 5031.640625 2155.570312 L 5027.941406 2380.558594 L 5092.480469 2380.828125 L 5090.851562 2545.101562 L 5257.300781 2547.808594 L 5263.011719 3145.734375 L 5279.289062 3145.015625 L 5280 3177.53125 L 5268.679688 3177.371094 Z M 458.886719 3236.988281 L 455.289062 2932.308594 L 603.203125 2931.808594 C 603.203125 2931.808594 638.289062 2861.238281 714.75 2863.371094 C 791.210938 2865.488281 821.851562 2923.730469 822.101562 2930.210938 C 822.347656 2936.691406 970.957031 2929.308594 970.957031 2929.308594 L 969.28125 3323.246094 L 459.914062 3323.742188 L 459.886719 3321.519531 L 0 3323.742188 L 1.113281 3001.191406 L 61.25 3001.191406 L 60.957031 2962.652344 L 122.902344 2962.652344 L 123.378906 2922.050781 L 139.46875 2922.441406 L 140.027344 2880.21875 L 155.855469 2880.039062 L 156.5625 2921.921875 L 284.941406 2922.410156 L 284.140625 2962.652344 L 341.140625 2962.652344 L 341.664062 3001.191406 L 403.152344 3001.191406 L 408.34375 3190.722656 Z M 4467.960938 3323.742188 L 3872.03125 3323.742188 L 3869.398438 3178.363281 L 3907.621094 3177.632812 L 3909.859375 2598.800781 L 3910.28125 2531.589844 L 3924.378906 2531.429688 L 3924.820312 2575.890625 L 4007.449219 2575.679688 L 4010.171875 2202.101562 L 4076.429688 2202.039062 L 4076.699219 2098.621094 L 4113.890625 2098.941406 L 4113.96875 2077.710938 L 4133.140625 2076.871094 L 4133.289062 2015.390625 L 4150.558594 2014.53125 L 4150.621094 1913.210938 L 4152.679688 1913.160156 L 4152.691406 1912.339844 L 4169.988281 1912.75 L 4187.300781 1912.339844 L 4187.308594 1913.160156 L 4189.371094 1913.210938 L 4189.429688 2014.53125 L 4206.691406 2015.390625 L 4206.851562 2076.871094 L 4226.019531 2077.710938 L 4226.101562 2098.941406 L 4263.289062 2098.621094 L 4263.558594 2202.039062 L 4329.808594 2202.101562 L 4332.539062 2575.679688 L 4415.171875 2575.890625 L 4415.609375 2531.429688 L 4429.710938 2531.589844 L 4430.128906 2598.800781 L 4432.371094 3177.632812 L 4470.589844 3177.328125 Z M 2112.300781 2899.03125 L 2107.320312 3286.582031 L 2125.070312 3287.570312 L 2123.808594 3209.824219 L 2111.648438 3209.636719 L 2111.859375 3170.835938 L 2124.550781 3170.5 L 2124.101562 3111.054688 L 2112.730469 3111.804688 L 2112.308594 3053.5 L 2124.148438 3053.289062 L 2124.511719 2975.921875 L 2112.191406 2975.636719 Z M 2613.949219 3209.679688 L 2604.71875 3209.824219 L 2603.46875 3287.570312 L 2613.761719 3286.996094 Z M 2614.191406 3111.699219 L 2604.429688 3111.054688 L 2603.988281 3170.5 L 2614.050781 3170.765625 Z M 2614.53125 2975.679688 L 2604.03125 2975.921875 L 2604.390625 3053.289062 L 2614.339844 3053.464844 Z M 2113.078125 2838.46875 L 2112.320312 2897.328125 L 2124.789062 2897.769531 L 2124.808594 2838.808594 Z M 2614.878906 2838.488281 L 2603.730469 2838.808594 L 2603.738281 2897.769531 L 2614.730469 2897.378906 Z M 2114.828125 2702.03125 L 2114.070312 2761.058594 L 2123.980469 2761.390625 L 2124.160156 2702.46875 Z M 2615.21875 2701.960938 L 2604.378906 2702.46875 L 2604.550781 2761.390625 L 2615.070312 2761.039062 Z M 2615.609375 2545.921875 L 2604.5 2546.441406 L 2604.511719 2624.621094 L 2615.410156 2624.378906 Z M 3278.429688 2532.839844 L 3164.578125 2532.839844 L 3164.578125 2573.308594 L 3278.429688 2573.308594 Z M 2615.851562 2448.410156 L 2604.691406 2449.070312 L 2604.378906 2488.191406 L 2615.75 2488.738281 Z M 2616.289062 2272.238281 L 2616.171875 2293.339844 L 2604.390625 2293.121094 L 2604.269531 2352.070312 L 2615.929688 2352.710938 L 2615.988281 2393.46875 Z M 3586.421875 2061 L 3567.339844 2061 L 3567.339844 2305.109375 L 3586.421875 2305.109375 Z M 2616.578125 2156.449219 L 2604.660156 2157 L 2604.519531 2234.601562 L 2616.378906 2234.949219 L 2616.578125 2156.449219 "/>
</svg>
